<?xml version="1.0" encoding="UTF-8" standalone="no"?>
<svg
   viewBox="0 0 25.93 28.85"
   version="1.1"
   id="svg67"
   sodipodi:docname="crates.svg"
   width="25.93"
   height="28.85"
   inkscape:version="1.4 (e7c3feb100, 2024-10-09)"
   xmlns:inkscape="http://www.inkscape.org/namespaces/inkscape"
   xmlns:sodipodi="http://sodipodi.sourceforge.net/DTD/sodipodi-0.dtd"
   xmlns:xlink="http://www.w3.org/1999/xlink"
   xmlns="http://www.w3.org/2000/svg"
   xmlns:svg="http://www.w3.org/2000/svg">
  <sodipodi:namedview
     id="namedview67"
     pagecolor="#505050"
     bordercolor="#ffffff"
     borderopacity="1"
     inkscape:showpageshadow="0"
     inkscape:pageopacity="0"
     inkscape:pagecheckerboard="1"
     inkscape:deskcolor="#d1d1d1"
     inkscape:zoom="37.53125"
     inkscape:cx="12.696087"
     inkscape:cy="14.294754"
     inkscape:window-width="2560"
     inkscape:window-height="1410"
     inkscape:window-x="0"
     inkscape:window-y="0"
     inkscape:window-maximized="1"
     inkscape:current-layer="svg67" />
  <defs
     id="defs1">
    <symbol
       id="a"
       viewBox="0 0 45.72 26.28">
      <rect
         width="45.720001"
         height="26.280001"
         style="fill:none"
         id="rect1"
         x="0"
         y="0" />
      <polygon
         points="22.926,16.309 22.926,26.28 45.72,13.139 22.926,0 22.926,9.97 0,9.97 0,16.309 "
         style="fill:#231f20"
         id="polygon1" />
    </symbol>
  </defs>
  <title
     id="title1">file_type_cargo</title>
  <path
     d="m 10.961,27.811 -0.007,-0.457 12.926,-5.511 2.038,0.288 -0.012,0.385 -12.942,6.334 z"
     style="fill:#977753"
     id="path1" />
  <path
     d="m 10.968,27.359 12.912,-5.877 2.05,0.663 -12.966,6.264 z"
     style="fill:#7a552c"
     id="path2" />
  <path
     d="m 10.958,25.922 2.01,1.086 v 1.416 l -2.01,-1.086 z"
     style="fill:#886947"
     id="path3" />
  <path
     d="m 25.839,20.757 -1.521,0.766 v 1.416 l 1.521,-0.766 z"
     style="fill:#9a7246"
     id="path4" />
  <path
     d="m 16.878,23.043 2.01,1.086 v 1.416 l -2.01,-1.086 z"
     style="fill:#694a27"
     id="path5" />
  <path
     d="m 20.408,23.364 -1.521,0.766 v 1.416 l 1.521,-0.766 z"
     style="fill:#9a7246"
     id="path6" />
  <path
     d="M 5.422,25.041 5.415,24.641 18.34,19.127 20.378,19.415 20.366,19.8 7.424,26.08 Z"
     style="fill:#715a40"
     id="path7" />
  <path
     d="m 5.419,23.206 2.009,1.086 v 1.416 l -2.01,-1.086 v -1.416 z"
     style="fill:#886947"
     id="path8" />
  <path
     d="m 8.949,23.526 -1.521,0.766 v 1.416 l 1.521,-0.766 z"
     style="fill:#6d471e"
     id="path9" />
  <path
     d="M 0.154,22.38 0.147,22.031 13.073,16.52 15.111,16.808 15.1,17.192 2.156,23.419 Z"
     style="fill:#7a5f41"
     id="path10" />
  <path
     d="m 0.151,20.6 2.01,1.086 v 1.416 l -2.01,-1.086 z"
     style="fill:#886947"
     id="path11" />
  <path
     d="M 3.681,20.92 2.16,21.686 v 1.416 l 1.521,-0.766 z"
     style="fill:#6d471e"
     id="path12" />
  <path
     d="M 0.045,20.914 0.038,20.632 c 0,0 2.539,-0.09 1.689,0.115 1.053,-0.663 11.155,-4.555 11.155,-4.555 l 12.961,4.44 0.062,0.279 -12.942,6.09 z"
     style="fill:#977753"
     id="path13" />
  <path
     d="m 0,20.652 12.966,-4.519 12.963,4.519 -12.965,6.019 z"
     style="fill:#c69c6d"
     id="path14" />
  <path
     d="m 13.072,4.932 -6.2,-2.481 v 8.123 l 6.2,2.522 z"
     style="fill:#e5ac3d;stroke:#73561f;stroke-width:0.0543092px;stroke-miterlimit:10"
     id="path15" />
  <path
     d="M 13.031,4.966 19.146,2.531 13,0 6.859,2.467 Z"
     style="fill:#e3b04e;stroke:#73561f;stroke-width:0.0540708px;stroke-miterlimit:10"
     id="path16" />
  <use
     width="45.720001"
     height="26.280001"
     transform="matrix(0,-0.029,0.022,0.013,7.26,4.542)"
     xlink:href="#a"
     id="use16" />
  <path
     d="m 19.209,15.401 6.2,-2.481 v 7.311 l -6.2,2.878 z"
     style="fill:#e5ac3d;stroke:#73561f;stroke-width:0.0543092px;stroke-miterlimit:10"
     id="path17" />
  <path
     d="m 19.2,7.426 6.2,-2.415 v 7.906 l -6.2,2.509 z"
     style="fill:#e5ac3d;stroke:#73561f;stroke-width:0.0543092px;stroke-miterlimit:10"
     id="path18" />
  <path
     d="M 19.133,7.411 13.1,4.849 l 6.062,-2.274 6.2,2.4 z"
     style="fill:#e3b04e;stroke:#73561f;stroke-width:0.0543092px;stroke-miterlimit:10"
     id="path19" />
  <path
     d="m 6.772,15.384 -6.2,-2.392 v 7.375 l 6.2,2.847 z"
     style="fill:#e5ac3d;stroke:#73561f;stroke-width:0.0543092px;stroke-miterlimit:10"
     id="path20" />
  <path
     d="m 6.756,15.436 6.2,-2.417 -6.2,-2.465 -6.2,2.4 z"
     style="fill:#e3b04e;stroke:#73561f;stroke-width:0.0543092px;stroke-miterlimit:10"
     id="path21" />
  <line
     x1="3.6520002"
     y1="14.175"
     x2="9.8479996"
     y2="11.708"
     style="fill:none;stroke:#73561f;stroke-width:0.0543092px;stroke-miterlimit:10"
     id="line21" />
  <path
     d="M 13,17.95 6.8,15.486 v 7.715 l 6.2,2.957 z"
     style="fill:#e5ac3d;stroke:#73561f;stroke-width:0.0543092px;stroke-miterlimit:10"
     id="path22" />
  <path
     d="m 12.95,18.021 6.255,-2.481 v 7.661 l -6.255,2.957 z"
     style="fill:#e5ac3d;stroke:#73561f;stroke-width:0.0543092px;stroke-miterlimit:10"
     id="path23" />
  <path
     d="m 12.964,9.839 6.2,-2.446 v 8.16 l -6.2,2.485 z"
     style="fill:#e5ac3d;stroke:#73561f;stroke-width:0.0543092px;stroke-miterlimit:10"
     id="path24" />
  <path
     d="m 12.964,9.82 -6.2,-2.481 v 8.123 l 6.2,2.522 z"
     style="fill:#e5ac3d;stroke:#73561f;stroke-width:0.0543092px;stroke-miterlimit:10"
     id="path25" />
  <path
     d="m 12.977,9.8 6.169,-2.435 -6.2,-2.531 -6.2,2.467 z"
     style="fill:#e3b04e;stroke:#73561f;stroke-width:0.0543092px;stroke-miterlimit:10"
     id="path26" />
  <line
     x1="9.5199995"
     y1="8.441"
     x2="15.716001"
     y2="5.974"
     style="fill:none;stroke:#73561f;stroke-width:0.0543092px;stroke-miterlimit:10"
     id="line26" />
  <line
     x1="9.7369995"
     y1="3.6619999"
     x2="15.933"
     y2="1.1950002"
     style="fill:none;stroke:#73561f;stroke-width:0.0543092px;stroke-miterlimit:10"
     id="line27" />
  <line
     x1="16.511002"
     y1="3.5779998"
     x2="22.827002"
     y2="6.0249996"
     style="fill:none;stroke:#73561f;stroke-width:0.0543092px;stroke-miterlimit:10"
     id="line28" />
  <polygon
     points="13.543,10.472 19.739,8.006 18.301,7.395 12.061,9.879 "
     style="opacity:0.3;fill:#ffffff;stroke:#73561f;stroke-width:0.0474122px;stroke-miterlimit:10"
     id="polygon28"
     transform="translate(-3.3,-1.708)" />
  <polygon
     points="13.815,5.693 20.01,3.227 18.573,2.616 12.333,5.1 "
     style="opacity:0.3;fill:#ffffff;stroke:#73561f;stroke-width:0.0474122px;stroke-miterlimit:10"
     id="polygon29"
     transform="translate(-3.3,-1.708)" />
  <polygon
     points="10.089,15.288 10.063,14.116 6.266,15.628 7.747,16.22 "
     style="opacity:0.3;fill:#ffffff;stroke:#73561f;stroke-width:0.0474122px;stroke-miterlimit:10"
     id="polygon30"
     transform="translate(-3.3,-1.708)" />
  <polygon
     points="25.383,7.967 26.725,7.443 20.495,5.029 19.156,5.554 "
     style="opacity:0.3;fill:#ffffff;stroke:#73561f;stroke-width:0.0418619px;stroke-miterlimit:10"
     id="polygon31"
     transform="translate(-3.3,-1.708)" />
  <polygon
     points="6.647,17.424 6.7,17.509 6.751,17.465 "
     style="fill:none"
     id="polygon32"
     transform="translate(-3.3,-1.708)" />
  <polygon
     points="7.026,17.571 7.09,17.679 7.155,17.622 "
     style="fill:none"
     id="polygon33"
     transform="translate(-3.3,-1.708)" />
  <polygon
     points="6.266,17.275 6.467,17.139 6.647,17.424 6.751,17.465 6.889,17.343 7.026,17.571 7.155,17.622 7.344,17.456 7.582,17.788 7.719,17.841 7.719,16.195 6.266,15.63 "
     style="opacity:0.3;fill:#ffffff;stroke:#73561f;stroke-width:0.066615px;stroke-miterlimit:10"
     id="polygon34"
     transform="translate(-3.3,-1.708)" />
  <polygon
     points="12.729,6.888 12.783,6.973 12.833,6.929 "
     style="fill:none"
     id="polygon35"
     transform="translate(-3.3,-1.708)" />
  <polygon
     points="13.108,7.035 13.173,7.143 13.238,7.086 "
     style="fill:none"
     id="polygon36"
     transform="translate(-3.3,-1.708)" />
  <polygon
     points="12.348,6.739 12.55,6.603 12.729,6.888 12.833,6.929 12.971,6.807 13.108,7.035 13.238,7.086 13.426,6.92 13.665,7.252 13.802,7.305 13.802,5.659 12.348,5.094 "
     style="opacity:0.3;fill:#ffffff;stroke:#73561f;stroke-width:0.066615px;stroke-miterlimit:10"
     id="polygon37"
     transform="translate(-3.3,-1.708)" />
  <polygon
     points="12.49,11.699 12.544,11.783 12.594,11.739 "
     style="fill:none"
     id="polygon38"
     transform="translate(-3.3,-1.708)" />
  <polygon
     points="12.869,11.846 12.933,11.953 12.998,11.896 "
     style="fill:none"
     id="polygon39"
     transform="translate(-3.3,-1.708)" />
  <polygon
     points="12.109,11.55 12.31,11.414 12.49,11.699 12.594,11.739 12.732,11.618 12.869,11.846 12.998,11.896 13.187,11.73 13.425,12.062 13.562,12.115 13.562,10.47 12.109,9.905 "
     style="opacity:0.3;fill:#ffffff;stroke:#73561f;stroke-width:0.066615px;stroke-miterlimit:10"
     id="polygon40"
     transform="translate(-3.3,-1.708)" />
  <polygon
     points="13.193,16.803 13.139,16.719 13.089,16.764 "
     style="fill:none"
     id="polygon41"
     transform="translate(-3.3,-1.708)" />
  <polygon
     points="12.813,16.661 12.747,16.554 12.682,16.612 "
     style="fill:none"
     id="polygon42"
     transform="translate(-3.3,-1.708)" />
  <polygon
     points="13.577,16.946 13.377,17.085 13.193,16.803 13.089,16.764 12.953,16.887 12.813,16.661 12.682,16.612 12.496,16.781 12.253,16.452 12.116,16.401 12.139,18.046 13.6,18.591 "
     style="opacity:0.3;fill:#ffffff;stroke:#73561f;stroke-width:0.066615px;stroke-miterlimit:10"
     id="polygon43"
     transform="translate(-3.3,-1.708)" />
  <polygon
     points="7.382,21.962 7.328,21.878 7.278,21.923 "
     style="fill:none"
     id="polygon44"
     transform="translate(-3.3,-1.708)" />
  <polygon
     points="7.001,21.82 6.936,21.714 6.871,21.772 "
     style="fill:none"
     id="polygon45"
     transform="translate(-3.3,-1.708)" />
  <polygon
     points="7.766,22.105 7.566,22.244 7.382,21.962 7.278,21.923 7.141,22.046 7.001,21.82 6.871,21.772 6.685,21.94 6.442,21.612 6.304,21.56 6.327,23.206 7.719,23.845 "
     style="opacity:0.3;fill:#ffffff;stroke:#73561f;stroke-width:0.066615px;stroke-miterlimit:10"
     id="polygon46"
     transform="translate(-3.3,-1.708)" />
  <polygon
     points="25.708,14.178 25.761,14.093 25.812,14.138 "
     style="fill:none"
     id="polygon47"
     transform="translate(-3.3,-1.708)" />
  <polygon
     points="26.087,14.031 26.151,13.923 26.216,13.98 "
     style="fill:none"
     id="polygon48"
     transform="translate(-3.3,-1.708)" />
  <polygon
     points="25.327,14.327 25.528,14.463 25.708,14.178 25.812,14.138 25.95,14.259 26.087,14.031 26.216,13.98 26.405,14.146 26.643,13.814 26.78,13.761 26.78,15.407 25.327,15.972 "
     style="opacity:0.3;fill:#ffffff;stroke:#73561f;stroke-width:0.066615px;stroke-miterlimit:10"
     id="polygon49"
     transform="translate(-3.3,-1.708)" />
  <polygon
     points="26.411,9.237 26.356,9.321 26.307,9.276 "
     style="fill:none"
     id="polygon50"
     transform="translate(-3.3,-1.708)" />
  <polygon
     points="26.03,9.379 25.964,9.485 25.9,9.427 "
     style="fill:none"
     id="polygon51"
     transform="translate(-3.3,-1.708)" />
  <polygon
     points="26.794,9.093 26.595,8.955 26.411,9.237 26.307,9.276 26.17,9.152 26.03,9.379 25.9,9.427 25.714,9.259 25.471,9.587 25.333,9.639 25.356,7.993 26.817,7.448 "
     style="opacity:0.3;fill:#ffffff;stroke:#73561f;stroke-width:0.066615px;stroke-miterlimit:10"
     id="polygon52"
     transform="translate(-3.3,-1.708)" />
  <polygon
     points="19.375,24.642 19.428,24.558 19.478,24.602 "
     style="fill:none"
     id="polygon53"
     transform="translate(-3.3,-1.708)" />
  <polygon
     points="19.753,24.495 19.818,24.388 19.883,24.445 "
     style="fill:none"
     id="polygon54"
     transform="translate(-3.3,-1.708)" />
  <polygon
     points="18.993,24.791 19.195,24.927 19.375,24.642 19.478,24.602 19.617,24.723 19.753,24.495 19.883,24.445 20.072,24.611 20.31,24.279 20.447,24.226 20.447,25.871 18.993,26.545 "
     style="opacity:0.3;fill:#ffffff;stroke:#73561f;stroke-width:0.066615px;stroke-miterlimit:10"
     id="polygon55"
     transform="translate(-3.3,-1.708)" />
  <polygon
     points="20.078,19.864 20.023,19.948 19.973,19.903 "
     style="fill:none"
     id="polygon56"
     transform="translate(-3.3,-1.708)" />
  <polygon
     points="19.697,20.006 19.631,20.113 19.567,20.055 "
     style="fill:none"
     id="polygon57"
     transform="translate(-3.3,-1.708)" />
  <polygon
     points="20.461,19.721 20.262,19.582 20.078,19.864 19.973,19.903 19.837,19.78 19.697,20.006 19.567,20.055 19.38,19.886 19.138,20.215 19,20.266 19.023,18.62 20.484,18.076 "
     style="opacity:0.3;fill:#ffffff;stroke:#73561f;stroke-width:0.066615px;stroke-miterlimit:10"
     id="polygon58"
     transform="translate(-3.3,-1.708)" />
  <path
     d="m 18.126,11.782 -0.172,-0.039 v -0.051 l 0.148,-0.208 a 0.087,0.087 0 0 0 0.018,-0.065 0.035,0.035 0 0 0 -0.037,-0.03 l -0.189,0.006 -0.015,-0.045 0.118,-0.222 a 0.073,0.073 0 0 0 0.007,-0.063 0.037,0.037 0 0 0 -0.045,-0.018 l -0.2,0.051 -0.024,-0.037 0.084,-0.229 a 0.058,0.058 0 0 0 0,-0.058 0.042,0.042 0 0 0 -0.051,-0.006 l -0.2,0.094 -0.032,-0.027 0.047,-0.227 a 0.047,0.047 0 0 0 -0.016,-0.052 0.052,0.052 0 0 0 -0.056,0.007 l -0.2,0.133 -0.039,-0.017 0.007,-0.215 a 0.039,0.039 0 0 0 -0.026,-0.043 0.065,0.065 0 0 0 -0.058,0.02 l -0.184,0.166 -0.045,-0.006 -0.033,-0.2 A 0.036,0.036 0 0 0 16.897,10.369 0.08,0.08 0 0 0 16.84,10.4 l -0.164,0.194 -0.049,0.005 -0.071,-0.168 a 0.036,0.036 0 0 0 -0.044,-0.021 0.094,0.094 0 0 0 -0.055,0.042 l -0.138,0.214 -0.05,0.016 -0.107,-0.135 a 0.041,0.041 0 0 0 -0.05,-0.008 0.1,0.1 0 0 0 -0.05,0.051 l -0.107,0.226 -0.05,0.026 -0.138,-0.1 a 0.05,0.05 0 0 0 -0.055,0 0.109,0.109 0 0 0 -0.044,0.058 l -0.071,0.228 -0.049,0.036 -0.164,-0.054 a 0.062,0.062 0 0 0 -0.057,0.017 0.107,0.107 0 0 0 -0.036,0.063 l -0.033,0.223 -0.045,0.044 -0.184,-0.01 a 0.077,0.077 0 0 0 -0.058,0.029 0.1,0.1 0 0 0 -0.026,0.065 l 0.007,0.209 -0.039,0.05 -0.2,0.035 a 0.092,0.092 0 0 0 -0.056,0.04 0.085,0.085 0 0 0 -0.016,0.065 l 0.046,0.187 -0.032,0.054 -0.2,0.079 a 0.1,0.1 0 0 0 -0.051,0.049 0.07,0.07 0 0 0 0,0.062 l 0.084,0.157 -0.024,0.057 -0.2,0.119 a 0.109,0.109 0 0 0 -0.045,0.057 0.056,0.056 0 0 0 0.007,0.057 l 0.118,0.122 -0.015,0.058 -0.189,0.155 a 0.107,0.107 0 0 0 -0.037,0.062 0.045,0.045 0 0 0 0.018,0.05 l 0.148,0.082 v 0.055 l -0.172,0.185 a 0.1,0.1 0 0 0 -0.028,0.065 0.038,0.038 0 0 0 0.028,0.041 l 0.172,0.039 v 0.051 l -0.148,0.208 a 0.088,0.088 0 0 0 -0.018,0.065 0.035,0.035 0 0 0 0.037,0.03 l 0.189,-0.006 0.015,0.045 -0.118,0.222 a 0.073,0.073 0 0 0 -0.007,0.063 0.037,0.037 0 0 0 0.045,0.018 l 0.2,-0.051 0.024,0.037 -0.084,0.229 a 0.058,0.058 0 0 0 0,0.058 0.042,0.042 0 0 0 0.051,0.006 l 0.2,-0.094 0.032,0.027 -0.046,0.227 a 0.047,0.047 0 0 0 0.016,0.051 0.052,0.052 0 0 0 0.056,-0.007 l 0.2,-0.133 0.039,0.017 -0.007,0.215 a 0.039,0.039 0 0 0 0.026,0.043 0.065,0.065 0 0 0 0.058,-0.02 l 0.184,-0.166 0.045,0.006 0.033,0.2 a 0.035,0.035 0 0 0 0.036,0.032 0.08,0.08 0 0 0 0.057,-0.031 l 0.164,-0.194 0.049,-0.005 0.071,0.168 a 0.036,0.036 0 0 0 0.044,0.02 0.093,0.093 0 0 0 0.055,-0.042 l 0.138,-0.214 0.05,-0.016 0.107,0.135 a 0.041,0.041 0 0 0 0.05,0.008 0.1,0.1 0 0 0 0.05,-0.051 l 0.107,-0.226 0.05,-0.027 0.138,0.1 a 0.05,0.05 0 0 0 0.055,0 0.109,0.109 0 0 0 0.044,-0.058 l 0.071,-0.228 0.049,-0.036 0.164,0.054 a 0.063,0.063 0 0 0 0.057,-0.017 0.107,0.107 0 0 0 0.036,-0.063 l 0.033,-0.223 0.045,-0.044 0.184,0.01 a 0.077,0.077 0 0 0 0.058,-0.029 0.1,0.1 0 0 0 0.026,-0.065 l -0.007,-0.209 0.039,-0.05 0.2,-0.035 a 0.091,0.091 0 0 0 0.056,-0.04 0.085,0.085 0 0 0 0.016,-0.065 l -0.046,-0.187 0.017,-0.053 0.2,-0.079 a 0.1,0.1 0 0 0 0.051,-0.049 0.07,0.07 0 0 0 0,-0.062 l -0.084,-0.157 0.024,-0.057 0.2,-0.119 a 0.108,0.108 0 0 0 0.045,-0.057 0.056,0.056 0 0 0 -0.007,-0.057 l -0.118,-0.122 0.015,-0.058 0.189,-0.155 a 0.107,0.107 0 0 0 0.037,-0.062 0.045,0.045 0 0 0 -0.018,-0.05 L 17.94,12.126 v -0.055 l 0.172,-0.185 a 0.1,0.1 0 0 0 0.028,-0.065 0.038,0.038 0 0 0 -0.014,-0.039 z m -1.153,1.988 c -0.066,0.013 -0.108,-0.037 -0.094,-0.112 a 0.208,0.208 0 0 1 0.145,-0.16 c 0.066,-0.013 0.108,0.037 0.094,0.112 a 0.209,0.209 0 0 1 -0.145,0.16 z m -0.059,-0.39 a 0.19,0.19 0 0 0 -0.132,0.146 l -0.061,0.325 a 2.252,2.252 0 0 1 -0.619,0.4 1.4,1.4 0 0 1 -0.632,0.123 l -0.061,-0.273 c -0.013,-0.057 -0.072,-0.072 -0.132,-0.033 l -0.252,0.164 a 0.825,0.825 0 0 1 -0.13,-0.106 l 1.226,-0.521 c 0.014,-0.006 0.023,-0.012 0.023,-0.026 v -0.455 c 0,-0.013 -0.009,-0.012 -0.023,-0.006 l -0.359,0.152 v -0.288 l 0.388,-0.165 a 0.161,0.161 0 0 1 0.239,0.115 c 0.015,0.057 0.049,0.249 0.072,0.3 0.023,0.051 0.117,0.172 0.217,0.13 l 0.611,-0.26 0.022,-0.012 c -0.042,0.078 -0.089,0.155 -0.139,0.23 z m -1.7,1.13 c -0.066,0.043 -0.131,0.026 -0.145,-0.037 a 0.2,0.2 0 0 1 0.094,-0.192 c 0.066,-0.043 0.131,-0.026 0.145,0.037 a 0.2,0.2 0 0 1 -0.09,0.192 z m -0.465,-1.779 a 0.18,0.18 0 0 1 -0.062,0.2 c -0.062,0.055 -0.134,0.056 -0.161,0 a 0.18,0.18 0 0 1 0.062,-0.2 c 0.066,-0.051 0.138,-0.053 0.165,0 z m -0.143,0.416 0.263,-0.234 a 0.164,0.164 0 0 0 0.057,-0.178 l -0.054,-0.105 0.213,-0.09 v 1 l -0.429,0.182 A 1.386,1.386 0 0 1 14.599,13.315 C 14.6,13.263 14.6,13.205 14.61,13.147 Z m 1.152,-0.587 v -0.3 l 0.506,-0.215 c 0.026,-0.011 0.185,-0.047 0.185,0.077 0,0.1 -0.122,0.192 -0.222,0.234 l -0.47,0.2 z m 1.84,-0.516 q 0,0.059 0,0.118 l -0.154,0.065 a 0.036,0.036 0 0 0 -0.022,0.036 v 0.074 a 0.31,0.31 0 0 1 -0.176,0.3 C 17.168,12.68 17.081,12.673 17.07,12.627 17.024,12.374 16.947,12.349 16.825,12.3 a 0.984,0.984 0 0 0 0.308,-0.578 0.3,0.3 0 0 0 -0.235,-0.315 0.568,0.568 0 0 0 -0.322,0.026 l -1.592,0.677 a 2.7,2.7 0 0 1 0.84,-0.853 l 0.188,0.127 c 0.042,0.029 0.113,0 0.157,-0.063 l 0.21,-0.3 a 0.938,0.938 0 0 1 1.027,0.33 l -0.144,0.4 c -0.025,0.069 0,0.128 0.057,0.13 l 0.277,0.011 Q 17.6,11.965 17.6,12.044 Z M 16.007,11 c 0.049,-0.069 0.126,-0.1 0.172,-0.069 0.046,0.031 0.045,0.113 0,0.183 -0.045,0.07 -0.126,0.1 -0.172,0.069 -0.046,-0.031 -0.044,-0.114 0.005,-0.184 z m 1.427,0.6 a 0.191,0.191 0 0 1 0.161,-0.133 c 0.062,0 0.089,0.066 0.062,0.142 a 0.191,0.191 0 0 1 -0.161,0.133 c -0.057,-0.006 -0.085,-0.07 -0.058,-0.15 z"
     style="opacity:0.55"
     id="path58" />
  <path
     d="m 12.014,21.713 -0.19,-0.195 -0.005,-0.057 0.163,-0.085 a 0.046,0.046 0 0 0 0.02,-0.052 0.112,0.112 0 0 0 -0.041,-0.065 l -0.208,-0.163 -0.016,-0.06 0.13,-0.127 a 0.057,0.057 0 0 0 0.007,-0.06 0.116,0.116 0 0 0 -0.05,-0.06 l -0.22,-0.126 -0.026,-0.06 0.092,-0.165 a 0.07,0.07 0 0 0 -0.005,-0.065 0.111,0.111 0 0 0 -0.057,-0.052 l -0.223,-0.083 -0.035,-0.057 0.051,-0.2 a 0.086,0.086 0 0 0 -0.017,-0.068 0.1,0.1 0 0 0 -0.061,-0.042 l -0.217,-0.038 -0.043,-0.053 0.008,-0.22 a 0.1,0.1 0 0 0 -0.029,-0.068 0.087,0.087 0 0 0 -0.063,-0.031 l -0.2,0.01 -0.049,-0.047 -0.036,-0.234 a 0.111,0.111 0 0 0 -0.039,-0.066 0.071,0.071 0 0 0 -0.063,-0.018 l -0.181,0.056 -0.054,-0.038 -0.078,-0.24 a 0.115,0.115 0 0 0 -0.048,-0.061 0.057,0.057 0 0 0 -0.06,-0.005 l -0.152,0.1 L 9.96,18.892 9.843,18.654 A 0.113,0.113 0 0 0 9.788,18.6 0.046,0.046 0 0 0 9.733,18.608 L 9.616,18.75 9.561,18.733 9.409,18.508 A 0.1,0.1 0 0 0 9.349,18.464 0.04,0.04 0 0 0 9.301,18.485 L 9.223,18.661 9.169,18.655 8.988,18.455 A 0.089,0.089 0 0 0 8.925,18.422 0.038,0.038 0 0 0 8.886,18.456 L 8.85,18.661 8.801,18.667 8.601,18.492 A 0.074,0.074 0 0 0 8.538,18.471 0.041,0.041 0 0 0 8.509,18.516 L 8.517,18.742 8.474,18.76 8.257,18.62 A 0.06,0.06 0 0 0 8.196,18.612 0.048,0.048 0 0 0 8.179,18.666 l 0.051,0.238 -0.035,0.028 -0.223,-0.1 A 0.048,0.048 0 0 0 7.915,18.838 0.059,0.059 0 0 0 7.91,18.899 l 0.092,0.24 -0.026,0.039 -0.22,-0.054 a 0.041,0.041 0 0 0 -0.05,0.019 0.074,0.074 0 0 0 0.007,0.066 l 0.13,0.234 -0.016,0.047 -0.208,-0.007 a 0.038,0.038 0 0 0 -0.041,0.032 0.089,0.089 0 0 0 0.02,0.068 l 0.163,0.219 -0.005,0.053 -0.19,0.04 a 0.04,0.04 0 0 0 -0.031,0.043 0.1,0.1 0 0 0 0.031,0.068 l 0.19,0.195 0.005,0.057 -0.163,0.085 a 0.046,0.046 0 0 0 -0.02,0.052 0.113,0.113 0 0 0 0.041,0.065 l 0.208,0.163 0.016,0.06 -0.13,0.127 a 0.057,0.057 0 0 0 -0.007,0.06 0.116,0.116 0 0 0 0.05,0.06 l 0.22,0.126 0.026,0.06 -0.092,0.165 a 0.071,0.071 0 0 0 0.005,0.065 0.111,0.111 0 0 0 0.057,0.052 l 0.223,0.083 0.035,0.057 -0.051,0.2 a 0.086,0.086 0 0 0 0.017,0.068 0.1,0.1 0 0 0 0.061,0.042 l 0.217,0.038 0.043,0.053 -0.008,0.22 a 0.1,0.1 0 0 0 0.029,0.068 0.087,0.087 0 0 0 0.063,0.031 l 0.2,-0.009 0.049,0.047 0.036,0.234 a 0.111,0.111 0 0 0 0.039,0.066 0.071,0.071 0 0 0 0.063,0.019 l 0.18,-0.056 0.054,0.038 0.078,0.24 a 0.115,0.115 0 0 0 0.048,0.061 0.057,0.057 0 0 0 0.06,0.005 l 0.152,-0.1 0.055,0.028 0.117,0.238 a 0.113,0.113 0 0 0 0.055,0.054 0.047,0.047 0 0 0 0.055,-0.008 l 0.117,-0.142 0.055,0.017 0.152,0.225 a 0.1,0.1 0 0 0 0.06,0.044 0.04,0.04 0 0 0 0.048,-0.021 l 0.078,-0.176 0.054,0.006 0.181,0.2 a 0.09,0.09 0 0 0 0.063,0.033 0.038,0.038 0 0 0 0.039,-0.034 l 0.036,-0.2 0.049,-0.006 0.2,0.175 a 0.074,0.074 0 0 0 0.063,0.021 0.041,0.041 0 0 0 0.029,-0.045 l -0.008,-0.226 0.043,-0.018 0.217,0.14 a 0.059,0.059 0 0 0 0.061,0.008 0.048,0.048 0 0 0 0.017,-0.054 l -0.051,-0.238 0.035,-0.028 0.223,0.1 a 0.048,0.048 0 0 0 0.057,-0.006 0.059,0.059 0 0 0 0.005,-0.061 l -0.092,-0.24 0.026,-0.039 0.22,0.054 a 0.041,0.041 0 0 0 0.05,-0.019 0.073,0.073 0 0 0 -0.007,-0.066 l -0.13,-0.234 0.016,-0.047 0.208,0.007 a 0.038,0.038 0 0 0 0.041,-0.032 0.089,0.089 0 0 0 -0.02,-0.068 l -0.163,-0.219 0.005,-0.053 0.19,-0.04 A 0.04,0.04 0 0 0 12.04,21.79 0.1,0.1 0 0 0 12.014,21.713 Z m -1.269,1.054 a 0.21,0.21 0 0 1 -0.1,-0.2 c 0.015,-0.066 0.087,-0.083 0.159,-0.038 a 0.21,0.21 0 0 1 0.1,0.2 c -0.015,0.063 -0.086,0.083 -0.159,0.038 z M 10.681,22.305 C 10.615,22.264 10.55,22.279 10.536,22.34 l -0.067,0.287 A 1.619,1.619 0 0 1 9.788,22.495 2.516,2.516 0 0 1 9.088,22.057 L 9.021,21.715 A 0.2,0.2 0 0 0 8.876,21.562 L 8.599,21.508 Q 8.522,21.397 8.456,21.28 l 1.35,0.552 c 0.015,0.006 0.025,0.008 0.025,-0.006 v -0.477 c 0,-0.014 -0.01,-0.021 -0.025,-0.027 L 9.411,21.161 v -0.3 l 0.427,0.175 a 0.459,0.459 0 0 1 0.263,0.335 c 0.017,0.074 0.054,0.305 0.08,0.385 a 0.608,0.608 0 0 0 0.239,0.331 l 0.672,0.275 0.024,0.008 a 0.9,0.9 0 0 1 -0.153,0.117 z M 8.814,21.971 A 0.224,0.224 0 0 1 8.655,21.803 c -0.015,-0.079 0.031,-0.132 0.1,-0.118 a 0.225,0.225 0 0 1 0.159,0.168 c 0.019,0.079 -0.027,0.132 -0.1,0.118 z M 8.3,19.685 c 0.03,0.08 0,0.147 -0.068,0.149 A 0.209,0.209 0 0 1 8.055,19.693 c -0.03,-0.08 0,-0.147 0.068,-0.149 A 0.209,0.209 0 0 1 8.3,19.685 Z m -0.157,0.309 0.289,-0.01 c 0.062,0 0.09,-0.063 0.062,-0.136 l -0.06,-0.159 0.234,0.1 v 1.055 L 8.196,20.651 a 1.944,1.944 0 0 1 -0.063,-0.479 1.565,1.565 0 0 1 0.012,-0.18 z m 1.268,0.416 v -0.311 l 0.557,0.228 c 0.029,0.012 0.2,0.116 0.2,0.247 0,0.108 -0.134,0.092 -0.244,0.047 L 9.407,20.41 Z m 2.025,1.108 q 0,0.062 0,0.121 L 11.267,21.57 c -0.017,-0.007 -0.024,0 -0.024,0.018 v 0.078 c 0,0.183 -0.1,0.181 -0.194,0.154 a 0.311,0.311 0 0 1 -0.194,-0.168 0.953,0.953 0 0 0 -0.269,-0.563 c 0.166,-0.038 0.339,-0.122 0.339,-0.331 A 0.862,0.862 0 0 0 10.666,20.216 1.183,1.183 0 0 0 10.311,19.954 L 8.559,19.237 a 1.144,1.144 0 0 1 0.924,-0.144 l 0.207,0.3 c 0.047,0.068 0.124,0.1 0.173,0.075 l 0.231,-0.127 a 2.951,2.951 0 0 1 1.13,1.267 l -0.158,0.293 a 0.169,0.169 0 0 0 0.062,0.187 l 0.3,0.26 q 0.01,0.087 0.01,0.17 z M 9.687,18.992 c 0.054,-0.029 0.138,0.007 0.19,0.082 0.052,0.075 0.049,0.159 0,0.188 -0.049,0.029 -0.138,-0.007 -0.19,-0.082 -0.052,-0.075 -0.053,-0.156 0,-0.188 z m 1.57,1.905 c 0.03,-0.056 0.109,-0.054 0.177,0 a 0.185,0.185 0 0 1 0.068,0.205 c -0.03,0.056 -0.109,0.054 -0.177,0 A 0.185,0.185 0 0 1 11.257,20.9 Z"
     style="opacity:0.56"
     id="path59" />
  <path
     d="m 24.538,17.016 -0.172,-0.039 v -0.051 l 0.148,-0.208 a 0.087,0.087 0 0 0 0.018,-0.065 0.035,0.035 0 0 0 -0.037,-0.03 l -0.189,0.006 -0.015,-0.045 0.118,-0.222 a 0.073,0.073 0 0 0 0.007,-0.063 0.037,0.037 0 0 0 -0.045,-0.018 l -0.2,0.051 -0.03,-0.04 0.084,-0.229 a 0.058,0.058 0 0 0 0,-0.058 0.042,0.042 0 0 0 -0.051,-0.006 l -0.2,0.094 -0.032,-0.027 0.047,-0.227 a 0.047,0.047 0 0 0 -0.016,-0.052 0.052,0.052 0 0 0 -0.056,0.007 l -0.2,0.133 -0.039,-0.017 0.007,-0.215 a 0.039,0.039 0 0 0 -0.026,-0.043 0.065,0.065 0 0 0 -0.058,0.02 l -0.184,0.166 -0.045,-0.006 -0.033,-0.2 A 0.036,0.036 0 0 0 23.303,15.6 0.08,0.08 0 0 0 23.246,15.631 l -0.164,0.194 -0.049,0.005 -0.071,-0.168 a 0.036,0.036 0 0 0 -0.044,-0.021 0.094,0.094 0 0 0 -0.055,0.042 l -0.138,0.214 -0.05,0.016 -0.107,-0.135 a 0.041,0.041 0 0 0 -0.05,-0.008 0.1,0.1 0 0 0 -0.05,0.051 l -0.107,0.226 -0.05,0.026 -0.138,-0.1 a 0.05,0.05 0 0 0 -0.055,0 0.109,0.109 0 0 0 -0.044,0.058 l -0.071,0.228 -0.049,0.036 -0.164,-0.054 a 0.062,0.062 0 0 0 -0.057,0.017 0.107,0.107 0 0 0 -0.036,0.063 l -0.033,0.223 -0.045,0.044 -0.184,-0.01 a 0.077,0.077 0 0 0 -0.058,0.029 0.1,0.1 0 0 0 -0.026,0.065 l 0.007,0.209 -0.039,0.05 -0.2,0.035 a 0.092,0.092 0 0 0 -0.056,0.04 0.085,0.085 0 0 0 -0.016,0.065 l 0.046,0.187 -0.032,0.054 -0.2,0.079 a 0.1,0.1 0 0 0 -0.051,0.049 0.07,0.07 0 0 0 0,0.062 l 0.084,0.157 -0.024,0.057 -0.2,0.119 a 0.109,0.109 0 0 0 -0.045,0.057 0.056,0.056 0 0 0 0.007,0.057 l 0.118,0.122 -0.015,0.058 -0.189,0.155 a 0.107,0.107 0 0 0 -0.037,0.062 0.045,0.045 0 0 0 0.018,0.05 l 0.148,0.082 v 0.055 l -0.172,0.185 a 0.1,0.1 0 0 0 -0.028,0.065 0.038,0.038 0 0 0 0.028,0.041 l 0.172,0.039 v 0.051 l -0.148,0.208 a 0.088,0.088 0 0 0 -0.018,0.065 0.035,0.035 0 0 0 0.037,0.03 l 0.189,-0.006 0.015,0.045 -0.118,0.222 a 0.073,0.073 0 0 0 -0.007,0.063 0.037,0.037 0 0 0 0.045,0.018 l 0.2,-0.051 0.024,0.037 -0.094,0.247 a 0.058,0.058 0 0 0 0,0.058 0.042,0.042 0 0 0 0.051,0.006 l 0.2,-0.094 0.032,0.027 -0.046,0.227 a 0.047,0.047 0 0 0 0.016,0.051 0.052,0.052 0 0 0 0.056,-0.007 l 0.2,-0.133 0.039,0.017 -0.007,0.215 a 0.039,0.039 0 0 0 0.026,0.043 0.065,0.065 0 0 0 0.058,-0.02 l 0.184,-0.166 0.045,0.006 0.033,0.2 a 0.035,0.035 0 0 0 0.036,0.032 0.08,0.08 0 0 0 0.057,-0.031 l 0.164,-0.194 0.049,-0.005 0.071,0.168 a 0.036,0.036 0 0 0 0.044,0.02 0.093,0.093 0 0 0 0.055,-0.042 l 0.138,-0.214 0.05,-0.016 0.107,0.135 a 0.041,0.041 0 0 0 0.05,0.008 0.1,0.1 0 0 0 0.05,-0.051 l 0.107,-0.226 0.05,-0.027 0.138,0.1 a 0.05,0.05 0 0 0 0.055,0 0.109,0.109 0 0 0 0.044,-0.058 l 0.071,-0.228 0.049,-0.036 0.164,0.054 a 0.063,0.063 0 0 0 0.057,-0.017 0.107,0.107 0 0 0 0.036,-0.063 l 0.038,-0.239 0.045,-0.044 0.184,0.01 a 0.077,0.077 0 0 0 0.058,-0.029 0.1,0.1 0 0 0 0.026,-0.065 l -0.007,-0.209 0.039,-0.05 0.2,-0.035 a 0.091,0.091 0 0 0 0.056,-0.04 0.085,0.085 0 0 0 0.016,-0.065 l -0.046,-0.187 0.032,-0.054 0.2,-0.079 a 0.1,0.1 0 0 0 0.051,-0.049 0.07,0.07 0 0 0 0,-0.062 l -0.084,-0.157 0.024,-0.057 0.2,-0.119 A 0.108,0.108 0 0 0 24.406,17.944 0.056,0.056 0 0 0 24.4,17.892 l -0.118,-0.122 0.015,-0.058 0.189,-0.155 a 0.107,0.107 0 0 0 0.037,-0.062 0.045,0.045 0 0 0 -0.018,-0.05 l -0.148,-0.082 v -0.055 l 0.172,-0.185 a 0.1,0.1 0 0 0 0.028,-0.065 0.038,0.038 0 0 0 -0.019,-0.042 z m -1.153,1.988 c -0.066,0.013 -0.108,-0.037 -0.094,-0.112 a 0.208,0.208 0 0 1 0.145,-0.16 c 0.066,-0.013 0.108,0.037 0.094,0.112 a 0.209,0.209 0 0 1 -0.146,0.161 z m -0.059,-0.39 a 0.19,0.19 0 0 0 -0.132,0.146 l -0.061,0.325 a 2.252,2.252 0 0 1 -0.619,0.4 1.4,1.4 0 0 1 -0.632,0.123 l -0.061,-0.273 c -0.013,-0.057 -0.072,-0.072 -0.132,-0.033 l -0.252,0.164 a 0.825,0.825 0 0 1 -0.13,-0.106 l 1.226,-0.521 c 0.014,-0.006 0.023,-0.012 0.023,-0.026 v -0.455 c 0,-0.013 -0.009,-0.012 -0.023,-0.006 l -0.359,0.152 v -0.288 l 0.388,-0.165 a 0.161,0.161 0 0 1 0.239,0.115 c 0.015,0.057 0.049,0.249 0.072,0.3 0.023,0.051 0.117,0.172 0.217,0.13 l 0.611,-0.26 0.022,-0.012 c -0.042,0.078 -0.089,0.155 -0.139,0.23 z m -1.7,1.13 c -0.066,0.043 -0.131,0.026 -0.145,-0.037 a 0.2,0.2 0 0 1 0.094,-0.192 c 0.066,-0.043 0.131,-0.026 0.145,0.037 a 0.2,0.2 0 0 1 -0.09,0.192 z m -0.465,-1.779 a 0.18,0.18 0 0 1 -0.062,0.2 c -0.062,0.055 -0.134,0.056 -0.161,0 A 0.18,0.18 0 0 1 21,17.965 c 0.065,-0.051 0.137,-0.053 0.165,0 z m -0.143,0.416 0.263,-0.234 a 0.164,0.164 0 0 0 0.057,-0.178 l -0.054,-0.105 0.213,-0.09 v 1 l -0.429,0.182 a 1.386,1.386 0 0 1 -0.057,-0.407 c 0.002,-0.057 0.005,-0.11 0.011,-0.168 z m 1.152,-0.587 v -0.3 l 0.506,-0.215 c 0.026,-0.011 0.185,-0.047 0.185,0.077 0,0.1 -0.122,0.192 -0.222,0.234 l -0.47,0.2 z m 1.84,-0.516 q 0,0.059 0,0.118 l -0.154,0.065 a 0.036,0.036 0 0 0 -0.022,0.036 v 0.074 a 0.31,0.31 0 0 1 -0.176,0.3 c -0.078,0.043 -0.165,0.036 -0.176,-0.01 -0.046,-0.253 -0.123,-0.278 -0.245,-0.327 a 0.984,0.984 0 0 0 0.308,-0.578 0.3,0.3 0 0 0 -0.235,-0.315 0.568,0.568 0 0 0 -0.322,0.026 L 21.4,17.342 a 2.7,2.7 0 0 1 0.84,-0.853 l 0.188,0.127 c 0.042,0.029 0.113,0 0.157,-0.063 l 0.21,-0.3 a 0.938,0.938 0 0 1 1.027,0.33 l -0.144,0.4 c -0.025,0.069 0,0.128 0.057,0.13 l 0.277,0.011 q 0.002,0.075 0.002,0.154 z m -1.591,-1.044 c 0.049,-0.069 0.126,-0.1 0.172,-0.069 0.046,0.031 0.045,0.113 0,0.183 -0.045,0.07 -0.126,0.1 -0.172,0.069 -0.046,-0.031 -0.045,-0.114 0.004,-0.184 z m 1.427,0.6 a 0.191,0.191 0 0 1 0.161,-0.133 c 0.062,0 0.089,0.066 0.062,0.142 a 0.191,0.191 0 0 1 -0.161,0.133 C 23.85,16.97 23.822,16.906 23.85,16.83 Z"
     style="opacity:0.55"
     id="path60" />
  <use
     width="45.720001"
     height="26.280001"
     transform="matrix(0,-0.029,0.022,0.013,1.014,15.078)"
     xlink:href="#a"
     id="use60" />
  <use
     width="45.720001"
     height="26.280001"
     transform="matrix(0,-0.029,0.022,0.013,5.576,16.924)"
     xlink:href="#a"
     id="use61" />
  <use
     width="45.720001"
     height="26.280001"
     transform="matrix(0,-0.029,0.022,0.013,7.151,9.43)"
     xlink:href="#a"
     id="use62" />
  <use
     width="45.720001"
     height="26.280001"
     transform="matrix(0,-0.029,0.022,0.013,11.713,11.276)"
     xlink:href="#a"
     id="use63" />
  <use
     width="45.720001"
     height="26.280001"
     transform="matrix(0,-0.029,0.02,-0.012,13.473,19.832)"
     xlink:href="#a"
     id="use64" />
  <use
     width="45.720001"
     height="26.280001"
     transform="matrix(0,-0.029,0.02,-0.012,18.089,17.986)"
     xlink:href="#a"
     id="use65" />
  <use
     width="45.720001"
     height="26.280001"
     transform="matrix(0,-0.029,0.02,-0.012,19.772,9.459)"
     xlink:href="#a"
     id="use66" />
  <use
     width="45.720001"
     height="26.280001"
     transform="matrix(0,-0.029,0.02,-0.012,24.389,7.613)"
     xlink:href="#a"
     id="use67" />
</svg>
