<?xml version="1.0" encoding="UTF-8" standalone="no"?>
<svg
   role="img"
   viewBox="0 0 24 24"
   version="1.1"
   id="svg1"
   sodipodi:docname="docsdotrs.svg"
   inkscape:version="1.4 (e7c3feb100, 2024-10-09)"
   xmlns:inkscape="http://www.inkscape.org/namespaces/inkscape"
   xmlns:sodipodi="http://sodipodi.sourceforge.net/DTD/sodipodi-0.dtd"
   xmlns="http://www.w3.org/2000/svg"
   xmlns:svg="http://www.w3.org/2000/svg">
  <defs
     id="defs1" />
  <sodipodi:namedview
     id="namedview1"
     pagecolor="#505050"
     bordercolor="#ffffff"
     borderopacity="1"
     inkscape:showpageshadow="0"
     inkscape:pageopacity="0"
     inkscape:pagecheckerboard="1"
     inkscape:deskcolor="#d1d1d1"
     inkscape:zoom="50.041667"
     inkscape:cx="12"
     inkscape:cy="12"
     inkscape:window-width="2560"
     inkscape:window-height="1410"
     inkscape:window-x="0"
     inkscape:window-y="0"
     inkscape:window-maximized="1"
     inkscape:current-layer="svg1" />
  <title
     id="title1">Docs.rs</title>
  <path
     d="m22.903 11.728-4.528-1.697V4.945a1.69 1.69 0 0 0-1.097-1.58l-4.687-1.757a1.668 1.668 0 0 0-1.186 0L6.717 3.366a1.687 1.687 0 0 0-1.097 1.58v5.085l-4.528 1.697A1.69 1.69 0 0 0 0 13.308v5.16c0 .638.36 1.224.933 1.51l4.687 2.344a1.68 1.68 0 0 0 1.51 0L12 19.884l4.87 2.438a1.68 1.68 0 0 0 1.51 0l4.687-2.344a1.69 1.69 0 0 0 .933-1.51v-5.16c0-.703-.436-1.331-1.097-1.58zm-6.122-1.66-3.984 1.496V8.367l3.984-1.734zM7.22 4.88 12 3.09l4.781 1.79v.028L12 6.848l-4.781-1.94Zm3.937 13.645-3.984 1.992V16.81l3.984-1.818zm0-5.25-4.781 1.94-4.781-1.94v-.028l4.781-1.79 4.781 1.79zm11.25 5.25-3.984 1.992V16.81l3.984-1.818zm0-5.25-4.781 1.94-4.781-1.94v-.028l4.781-1.79 4.781 1.79z"
     id="path1"
     style="fill:#ffffff" />
</svg>
