<?xml version="1.0" encoding="UTF-8" standalone="no"?>
<svg
   xmlns:dc="http://purl.org/dc/elements/1.1/"
   xmlns:cc="http://creativecommons.org/ns#"
   xmlns:rdf="http://www.w3.org/1999/02/22-rdf-syntax-ns#"
   xmlns:svg="http://www.w3.org/2000/svg"
   xmlns="http://www.w3.org/2000/svg"
   xmlns:sodipodi="http://sodipodi.sourceforge.net/DTD/sodipodi-0.dtd"
   xmlns:inkscape="http://www.inkscape.org/namespaces/inkscape"
   width="17.0667in"
   height="19.9111in"
   viewBox="0 0 1536 1792"
   version="1.1"
   id="svg3"
   sodipodi:docname="github-icon.svg"
   inkscape:version="1.0.1 (3bc2e813f5, 2020-09-07)">
  <metadata
     id="metadata9">
    <rdf:RDF>
      <cc:Work
         rdf:about="">
        <dc:format>image/svg+xml</dc:format>
        <dc:type
           rdf:resource="http://purl.org/dc/dcmitype/StillImage" />
        <dc:title></dc:title>
      </cc:Work>
    </rdf:RDF>
  </metadata>
  <defs
     id="defs7" />
  <sodipodi:namedview
     pagecolor="#ffffff"
     bordercolor="#666666"
     borderopacity="1"
     objecttolerance="10"
     gridtolerance="10"
     guidetolerance="10"
     inkscape:pageopacity="0"
     inkscape:pageshadow="2"
     inkscape:window-width="1920"
     inkscape:window-height="1052"
     id="namedview5"
     showgrid="false"
     inkscape:zoom="0.52734403"
     inkscape:cx="454.16476"
     inkscape:cy="728.17739"
     inkscape:window-x="2560"
     inkscape:window-y="360"
     inkscape:window-maximized="1"
     inkscape:current-layer="svg3" />
  <path
     id="Selection"
     fill="none"
     stroke="black"
     stroke-width="1"
     d="M 628.00,1234.00            C 625.23,1239.86 614.71,1250.50 610.01,1257.00              600.60,1270.03 594.07,1283.80 589.00,1299.00              585.61,1309.16 583.71,1316.51 581.60,1327.00              580.89,1330.54 580.47,1336.66 577.69,1339.03              575.20,1341.15 562.77,1345.58 559.00,1346.95              542.26,1353.01 513.79,1357.97 496.00,1358.00              479.92,1358.03 465.78,1359.07 450.00,1355.11              420.15,1347.61 392.03,1325.97 373.42,1302.00              373.42,1302.00 362.06,1286.00 362.06,1286.00              362.06,1286.00 351.26,1268.00 351.26,1268.00              343.18,1256.06 333.73,1244.83 323.00,1235.17              307.43,1221.16 280.37,1204.50 260.00,1199.16              260.00,1199.16 249.00,1197.24 249.00,1197.24              239.38,1195.67 227.54,1194.99 218.00,1197.24              213.50,1198.29 208.28,1199.98 205.60,1204.04              201.13,1210.84 212.54,1223.35 217.04,1228.00              228.91,1240.27 236.80,1241.92 249.00,1250.74              258.74,1257.78 267.89,1267.58 275.34,1277.00              284.78,1288.95 299.41,1310.32 305.69,1324.00              305.69,1324.00 317.55,1351.00 317.55,1351.00              323.68,1366.06 327.27,1375.52 337.15,1389.00              355.35,1413.81 385.46,1433.14 415.00,1441.57              427.84,1445.24 444.63,1447.56 458.00,1449.15              458.00,1449.15 481.00,1451.09 481.00,1451.09              481.00,1451.09 493.00,1452.00 493.00,1452.00              511.72,1452.03 530.47,1452.25 549.00,1449.25              549.00,1449.25 567.00,1446.20 567.00,1446.20              569.20,1445.78 573.53,1444.65 575.57,1445.58              578.64,1446.99 577.99,1455.07 578.00,1458.00              578.00,1458.00 578.00,1589.00 578.00,1589.00              577.99,1595.03 577.73,1599.37 575.21,1605.00              573.43,1608.95 571.82,1611.77 568.90,1615.00              548.71,1637.26 516.24,1623.61 493.00,1614.40              425.90,1587.79 378.20,1563.33 319.00,1521.42              302.91,1510.04 286.81,1497.86 272.00,1484.85              246.14,1462.12 221.27,1438.57 198.17,1413.00              177.96,1390.63 158.99,1366.59 141.58,1342.00              73.88,1246.38 32.38,1151.35 11.58,1036.00              11.58,1036.00 2.83,969.00 2.83,969.00              2.83,969.00 1.00,948.00 1.00,948.00              1.00,948.00 0.00,930.00 0.00,930.00              0.00,930.00 0.00,864.00 0.00,864.00              0.00,864.00 1.00,844.00 1.00,844.00              1.00,844.00 1.91,834.00 1.91,834.00              3.83,806.49 7.31,779.14 12.39,752.00              25.26,683.25 47.06,616.62 78.37,554.00              112.89,484.95 157.77,420.96 210.91,365.01              210.91,365.01 227.00,348.04 227.00,348.04              307.83,270.19 404.06,208.39 510.00,170.69              565.89,150.80 625.00,137.73 684.00,131.83              684.00,131.83 714.00,129.00 714.00,129.00              714.00,129.00 723.00,129.00 723.00,129.00              723.00,129.00 735.00,128.00 735.00,128.00              735.00,128.00 800.00,128.00 800.00,128.00              800.00,128.00 819.00,129.00 819.00,129.00              819.00,129.00 829.00,129.91 829.00,129.91              829.00,129.91 884.00,135.73 884.00,135.73              936.56,143.31 989.30,156.67 1039.00,175.42              1123.64,207.36 1198.69,252.96 1268.00,310.92              1345.48,375.72 1412.47,463.69 1457.63,554.00              1493.03,624.80 1516.98,701.67 1528.27,780.00              1528.27,780.00 1534.09,835.00 1534.09,835.00              1534.09,835.00 1535.00,845.00 1535.00,845.00              1535.00,845.00 1536.00,864.00 1536.00,864.00              1536.00,864.00 1536.00,928.00 1536.00,928.00              1536.00,928.00 1535.00,948.00 1535.00,948.00              1535.00,948.00 1534.09,958.00 1534.09,958.00              1534.09,958.00 1530.28,997.00 1530.28,997.00              1525.98,1031.84 1519.33,1066.10 1510.15,1100.00              1496.69,1149.70 1478.37,1198.21 1454.74,1244.00              1404.11,1342.12 1328.07,1435.74 1241.00,1503.58              1177.20,1553.28 1111.62,1588.86 1036.00,1617.05              1014.19,1625.18 985.59,1635.91 967.18,1615.00              964.45,1611.90 962.52,1608.78 960.87,1605.00              958.25,1598.99 958.01,1596.40 958.00,1590.00              958.00,1590.00 958.00,1423.00 958.00,1423.00              958.00,1379.81 961.01,1344.25 948.28,1302.00              943.52,1286.19 935.14,1269.21 925.26,1256.00              920.31,1249.39 909.55,1239.40 907.00,1234.00              921.07,1233.96 959.93,1227.21 975.00,1224.20              1055.45,1208.11 1139.53,1169.90 1190.10,1103.00              1222.25,1060.47 1241.66,1000.20 1250.41,948.00              1250.41,948.00 1256.09,895.00 1256.09,895.00              1256.09,895.00 1257.00,885.00 1257.00,885.00              1257.00,885.00 1257.00,848.00 1257.00,848.00              1256.72,808.84 1247.88,764.41 1230.74,729.00              1220.59,708.03 1211.70,692.69 1197.63,674.00              1197.63,674.00 1185.57,659.00 1185.57,659.00              1183.46,656.51 1179.95,653.25 1179.41,650.00              1178.85,646.68 1185.25,630.62 1186.57,626.00              1190.65,611.73 1194.98,587.71 1195.00,573.00              1195.00,573.00 1195.00,554.00 1195.00,554.00              1194.97,533.85 1189.29,506.61 1184.12,487.00              1184.12,487.00 1171.00,446.00 1171.00,446.00              1171.00,446.00 1155.00,444.00 1155.00,444.00              1132.69,443.74 1119.81,447.73 1099.00,454.67              1072.19,463.61 1045.11,476.30 1020.00,489.26              1020.00,489.26 978.00,514.67 978.00,514.67              973.10,517.91 963.78,525.06 958.00,524.79              958.00,524.79 938.00,519.88 938.00,519.88              938.00,519.88 897.00,511.08 897.00,511.08              868.44,506.26 839.92,502.22 811.00,500.96              811.00,500.96 798.00,500.00 798.00,500.00              798.00,500.00 780.00,500.00 780.00,500.00              780.00,500.00 768.00,499.18 768.00,499.18              768.00,499.18 758.00,500.00 758.00,500.00              758.00,500.00 738.00,500.00 738.00,500.00              738.00,500.00 725.00,500.96 725.00,500.96              695.21,502.26 665.35,506.11 636.00,511.61              636.00,511.61 596.00,520.37 596.00,520.37              591.37,521.53 580.13,525.33 576.00,524.69              572.47,524.13 559.75,515.47 556.00,513.00              556.00,513.00 518.00,490.31 518.00,490.31              518.00,490.31 468.00,467.58 468.00,467.58              441.88,456.43 409.66,443.67 381.00,444.00              381.00,444.00 365.00,446.00 365.00,446.00              365.00,446.00 356.67,471.00 356.67,471.00              356.67,471.00 350.88,491.00 350.88,491.00              346.16,508.97 341.03,535.58 341.00,554.00              341.00,554.00 341.00,572.00 341.00,572.00              341.02,586.99 344.84,609.52 349.00,624.00              349.00,624.00 354.05,640.00 354.05,640.00              355.12,642.91 357.07,646.89 356.48,650.00              355.83,653.37 352.47,656.45 350.28,659.00              350.28,659.00 338.37,674.00 338.37,674.00              324.94,691.91 315.99,706.89 306.26,727.00              288.04,764.64 279.17,807.36 279.00,849.00              279.00,849.00 279.00,886.00 279.00,886.00              279.00,886.00 279.91,896.00 279.91,896.00              279.91,896.00 285.59,948.00 285.59,948.00              294.66,1002.08 314.70,1062.08 348.24,1106.00              398.12,1171.34 481.09,1208.42 560.00,1224.20              574.92,1227.18 614.10,1233.96 628.00,1234.00 Z"
     style="fill:#000000;fill-opacity:1" />
</svg>
