<?xml version="1.0" encoding="UTF-8" standalone="no"?>
<svg
   xmlns:dc="http://purl.org/dc/elements/1.1/"
   xmlns:cc="http://creativecommons.org/ns#"
   xmlns:rdf="http://www.w3.org/1999/02/22-rdf-syntax-ns#"
   xmlns:svg="http://www.w3.org/2000/svg"
   xmlns="http://www.w3.org/2000/svg"
   xmlns:sodipodi="http://sodipodi.sourceforge.net/DTD/sodipodi-0.dtd"
   xmlns:inkscape="http://www.inkscape.org/namespaces/inkscape"
   width="1536"
   height="1792"
   preserveAspectRatio="xMidYMid meet"
   viewBox="0 -128 1536 1792"
   style="-ms-transform: rotate(360deg); -webkit-transform: rotate(360deg); transform: rotate(360deg); vertical-align: -0.143em;"
   version="1.1"
   id="svg6"
   sodipodi:docname="github-icon.svg"
   inkscape:version="1.0.1 (3bc2e813f5, 2020-09-07)">
  <metadata
     id="metadata12">
    <rdf:RDF>
      <cc:Work
         rdf:about="">
        <dc:format>image/svg+xml</dc:format>
        <dc:type
           rdf:resource="http://purl.org/dc/dcmitype/StillImage" />
      </cc:Work>
    </rdf:RDF>
  </metadata>
  <defs
     id="defs10" />
  <sodipodi:namedview
     pagecolor="#ffffff"
     bordercolor="#666666"
     borderopacity="1"
     objecttolerance="10"
     gridtolerance="10"
     guidetolerance="10"
     inkscape:pageopacity="0"
     inkscape:pageshadow="2"
     inkscape:window-width="2560"
     inkscape:window-height="1370"
     id="namedview8"
     showgrid="false"
     inkscape:zoom="0.5625"
     inkscape:cx="768"
     inkscape:cy="896"
     inkscape:window-x="0"
     inkscape:window-y="42"
     inkscape:window-maximized="1"
     inkscape:current-layer="svg6" />
  <path
     d="M768 0q209 0 385.5 103T1433 382.5T1536 768q0 251-146.5 451.5T1011 1497q-27 5-40-7t-13-30q0-3 .5-76.5t.5-134.5q0-97-52-142q57-6 102.5-18t94-39t81-66.5t53-105T1258 728q0-119-79-206q37-91-8-204q-28-9-81 11t-92 44l-38 24q-93-26-192-26t-192 26q-16-11-42.5-27T450 331.5T365 318q-45 113-8 204q-79 87-79 206q0 85 20.5 150T351 983t80.5 67t94 39t102.5 18q-39 36-49 103q-21 10-45 15t-57 5t-65.5-21.5T356 1146q-19-32-48.5-52t-49.5-24l-20-3q-21 0-29 4.5t-5 11.5t9 14t13 12l7 5q22 10 43.5 38t31.5 51l10 23q13 38 44 61.5t67 30t69.5 7t55.5-3.5l23-4q0 38 .5 88.5t.5 54.5q0 18-13 30t-40 7q-232-77-378.5-277.5T0 768q0-209 103-385.5T382.5 103T768 0zM291 1103q3-7-7-12q-10-3-13 2q-3 7 7 12q9 6 13-2zm31 34q7-5-2-16q-10-9-16-3q-7 5 2 16q10 10 16 3zm30 45q9-7 0-19q-8-13-17-6q-9 5 0 18t17 7zm42 42q8-8-4-19q-12-12-20-3q-9 8 4 19q12 12 20 3zm57 25q3-11-13-16q-15-4-19 7t13 15q15 6 19-6zm63 5q0-13-17-11q-16 0-16 11q0 13 17 11q16 0 16-11zm58-10q-2-11-18-9q-16 3-14 15t18 8t14-14z"
     fill="#626262"
     id="path2" />
</svg>
