<svg width="400pt" height="384.213" viewBox="0 0 400 288.16" xmlns="http://www.w3.org/2000/svg"><path d="m294.22 134.626-94.12 72.116-94.365-71.82L.323 239.751l.074 31.861c.012 9.18 7.979 16.589 17.743 16.548l364.157-.586c9.794.028 17.714-7.404 17.703-16.583l-.047-31.817zM83.357 117.896.05 54.482.26 200.52zM316.565 117.547l83.322 82.35-.219-146.008Z" style="fill:#fff;stroke-width:.478669"/><path d="M381.87 0 17.703.535C7.915.557-.017 7.973 0 17.152v7.116l200.055 152.265L399.617 23.675v-7.117c-.022-9.184-7.973-16.583-17.748-16.555ZM260.034 75.64c-1.855 5.147-4.457 9.782-7.84 13.91-3.412 4.106-7.462 7.433-12.264 10.011-4.79 2.584-10.132 3.906-15.963 4.01-6.65-.012-11.729-1.603-15.186-4.844-2.745 1.298-5.623 2.412-8.622 3.418-3.005.97-6.806 1.459-11.367 1.489-2.93-.011-5.674-.42-8.208-1.247-2.545-.799-4.813-2.052-6.726-3.82-1.918-1.73-3.451-3.953-4.577-6.584-1.154-2.642-1.74-5.813-1.758-9.483 0-5.814 1.04-11.126 3.086-15.946 2.015-4.848 4.842-9.018 8.408-12.55 3.526-3.51 7.651-6.232 12.355-8.197 4.71-2 9.73-2.986 15.148-2.986 4.1-.028 8.122.263 12.109.826 3.958.54 7.685 1.425 11.16 2.608l-8.719 43.471c.932.677 2.448 1 4.56.982 3.355.017 6.354-.931 9.013-2.797 2.66-1.89 4.849-4.35 6.634-7.335 1.746-2.987 3.113-6.302 4.026-9.955.879-3.59 1.339-7.186 1.339-10.701-.012-9.794-3.228-17.301-9.617-22.51-6.392-5.215-15.394-7.784-26.968-7.777-8.985.011-16.927 1.453-23.889 4.314-6.99 2.872-12.89 6.72-17.661 11.563a49.3 49.3 0 0 0-10.931 16.685c-2.493 6.285-3.751 12.792-3.751 19.542.011 6.163 1 11.418 2.993 15.773 1.96 4.325 4.63 7.91 8.012 10.684 3.377 2.75 7.33 4.785 11.851 6.038 4.521 1.303 9.345 1.924 14.446 1.924 4.763-.028 9.157-.294 13.166-.851 4.02-.557 7.657-1.43 10.964-2.642.81 1.885 1.597 3.831 2.332 5.813.712 2.005 1.39 3.987 1.918 5.963-1.613.765-3.63 1.488-5.882 2.126a61.251 61.251 0 0 1-7.405 1.545c-2.647.385-5.45.695-8.427.92-2.98.23-5.899.35-8.834.35-7.025 0-13.69-.926-19.977-2.787-6.33-1.885-11.832-4.751-16.595-8.674-4.75-3.872-8.494-8.719-11.263-14.601-2.74-5.888-4.13-12.918-4.136-21.035 0-7.61 1.453-15.262 4.446-23.074 2.919-7.789 7.474-14.778 13.568-21.11 6.071-6.301 13.894-11.407 23.33-15.405 9.432-3.992 20.656-6.02 33.609-6.044 6.944.006 13.514.88 19.668 2.598 6.13 1.78 11.558 4.43 16.17 8.025 4.602 3.579 8.267 8.047 10.965 13.487 2.677 5.445 4.038 11.81 4.066 19.128.032 5.344-.91 10.56-2.776 15.751z" style="fill:#fff;stroke-width:.478669"/><path d="M205.006 56.291c-3.074 0-5.777.644-8.122 1.941-2.395 1.304-4.394 3.028-6.06 5.154-1.677 2.137-2.941 4.549-3.798 7.41-.89 2.814-1.322 5.744-1.344 8.776.011 3.89.92 6.704 2.75 8.456 1.805 1.735 4.17 2.578 7.14 2.561 1.854.017 3.457-.121 4.812-.368 1.315-.253 2.786-.627 4.377-1.073l5.939-32.236a19.785 19.785 0 0 0-2.861-.5c-.875-.098-1.834-.126-2.833-.12z" style="fill:#fff;stroke-width:.478669"/></svg>
